<?xml version="1.0" encoding="UTF-8"?>
<svg id="Layer_2" data-name="Layer 2" xmlns="http://www.w3.org/2000/svg" viewBox="0 0 690.73 302.93">
  <defs>
    <style>
      .cls-1 {
        fill: #fff;
      }

      .cls-2 {
        fill: #42a8e8;
      }
    </style>
  </defs>
  <g id="Layer_1-2" data-name="Layer 1">
    <g>
      <path class="cls-1" d="M681.78,257.07c-2.3,1.64-8.59,2.67-11.92,2.6-39.69-.82-72.2-7.28-112.08-8.49-4.21.38-3.83-3.37-.74-2.52,2.19.59,9.22,2.05,12.69,2.14,6.54.19,10.85,8.56,9.02,11.01-.61,3.67-23.62,3.01-29.56,4.11-2.53.47-3.91,5.25-9.81,6.09-9.16,1.3-31.39-1.15-41.28-2.52-5.41-.73-10.51,1.31-15.66-.19,6.45,10.81,18.14,2.53,27.3,3.51,9.53,1.02,11.72-.27,21.47-1.37,8.05-.89,14.22-15.88,18.96-3.21,2.6,2.45,2.33,9.38-1.99,9.94-69.95,8.99-144.32-1.91-213.72,2.52-4.57.29-15.26,1.36-19.16,2.82-4.88,1.83-8.35,7.95-14.78,10.92-14.62,6.74-39.18,9.17-55.15,8.35-9.48-.48-31.61-6.72-37.81-6.1-2.14.21-4.06,2.66-6.39,3.41-26.69,8.6-48.81-6.22-73.59-13.87-16.7-5.15-74.33-13.79-82.35-25.21-2.09-2.98-1.31-6.25-3.01-9.26-3.85-6.83-21.01-19.93-27.42-28.91-9.35-13.06-17.21-39.89-14.11-55.76.76-3.92,5.26-4.28,7.56-8.36,4.53-8.05,2.84-17.97,5.15-25.52.94-3.04,5.68-6.22,6.5-9.44,2.02-7.9-1.99-16.24,8.55-20.85,16.62-7.28,48.14-10.17,67.19-14.71,15.22-3.62,34.32-6.66,45.4-18.17,12.05-12.5,21.6-28.08,37.44-37.24,16.31-9.45,63.56-12.58,84.61-15.88,1.07-1.83,3.63-1.82,6.88-2.45,32.96-6.41,83.17-10.71,117.25-13.76,13.28-1.19,19.84-1.85,31.64,6.11l17.51,68.09c88.68,52.85,164.77,101.2,254.29,152.65,1,1.71-7.6,28.59-8.87,29.5Z"/>
      <g>
        <path class="cls-1" d="M46.78,107.87l26.29-9.48,28.57-5.68,26.89-6.59,12.5-6.54,21.96-24.13,20.52-15.54,23.16-6.71,31.36-3.84,26.94-3.5s14.16-.46,14.5-.46,8.85-3.76,8.85-3.76l27.44,6.57,15.06,6.27,20.33,17.58,18.88,41.12,13.53,25.91,1.68,41.04,7.64,32.1,75.52-19.57,42.19-.92,19.57,7.34,9.48,19.57,6.73,27.52-7.03,28.43-38.83,3.36-22.62-.31-17.43-.61-105.48.92-51.67,4.89-25.99,22.93-30.88,5.2-40.36-11.01-96-14.98-59.31-22.62-26.9-23.85-10.09-22.93-2.45-22.32,1.76-9.17,4.97-1.87,13.45-33.29.46-14.37,14.83-6.73Z"/>
        <g>
          <path class="cls-2" d="M300.84,23.18l88.05-13.76,15.29,1.53,5.5,4.59,3.97,4.28,3.97,21.1,9.17,41.89,37.91,21.4,79.18,47.39,80.1,46.47,40.05,22.62,18.65,10.7-7.03,19.26-45.25,1.22-78.57-7.03-7.03-2.45-3.06-38.22-6.42-19.26-15.9-11.62-14.37,7.03-13.76-6.73-41.27-1.83-63.59-7.03s-2.14-18.34-1.53-19.26,4.89-18.65,4.89-18.65l-15.9-22.01-15.29-40.05-18.65-26.29-28.43-11.31-10.7-3.97Z"/>
          <g>
            <path d="M408.42,85.93c-1.68-.18-2.01-5.15-2.19-6.57-.76-6.07-1.02-13.02-1.3-19.16l2.17,8.93,1.32,16.8Z"/>
            <g>
              <path d="M414,12.49l14.37,66.99c85.19,50.35,170.55,100.41,256.55,149.43.96,1.64-7.06,24.39-8.28,25.26-2.2,1.56-12.41,1.55-15.6,1.49-38.13-.79-77.71-7.1-116.02-8.25-4.04.36-2.71,3.72.27,4.52,2.1.57,6.96-1.17,10.29-1.07,6.28.17,12.67,2.59,15.82,8.26-3.41,3.38-28.93,1.28-34.62,2.33-2.43.45-3.76,5-9.42,5.8-8.8,1.24-30.16-1.1-39.66-2.39-5.2-.71-9.83-3.12-14.78-4.54,6.2,10.3,17.16,6.77,25.96,7.7,9.16.97,18.03,3.86,27.39,2.83,7.73-.85,17.13-10.91,21.68,1.16-4.17.42-8.31,1.67-12.46,2.2-67.2,8.55-138.33-2.89-205.02,1.33-4.38.28-14.66,1.3-18.41,2.69-4.69,1.74-8.02,7.57-14.2,10.4-14.04,6.42-37.64,8.74-52.97,7.95-9.11-.46-30.37-6.41-36.32-5.82-2.06.2-3.89,2.54-6.13,3.25-25.64,8.19-46.9-5.93-70.7-13.21-16.04-4.91-71.41-13.13-79.12-24.01-2.01-2.84-1.26-5.95-2.89-8.82-3.7-6.52-20.18-19-26.34-27.54-8.98-12.45-16.53-38-13.56-53.12.73-3.73,5.05-4.08,7.26-7.97,4.35-7.66,2.73-17.12,4.95-24.31.9-2.9,5.46-5.93,6.24-8.98,1.93-7.53-1.91-15.47,8.2-19.86,15.97-6.94,46.25-9.68,64.56-14,14.62-3.45,32.97-6.35,43.62-17.31,11.57-11.91,20.75-26.75,35.97-35.48,15.67-8.99,63.87-12.38,84.09-15.54,2.58-.4,4.06-2.76,7.18-3.37,31.66-6.1,76.25-10.01,108.99-12.92,12.76-1.13,21.78-2.64,33.11,4.95ZM410.5,18.34l-10.81-4.4-86.23,9.99c.37,2.21,2.47,1.91,3.96,2.47,11.69,4.36,17.56,4.57,27.71,13.3,16.42,14.13,24.02,36.6,30.63,56.61,14.04,1.31,28.11-1.86,41.98-.36,76.1,45.09,152.21,90.31,229.08,134.12,6.52,3.71,14.41,8.74,20.85,11.95,1.37.68,4.47,2.46,5.78,1.41.63-.5,4.96-11.81,1.57-12.23-83.65-48.21-166.96-96.94-250.13-145.9-2.31-2.15-3.41-9.78-4.2-13.36-3.9-17.7-5.74-36-10.19-53.6ZM198.57,81.24c15.51,1.04,34.36,2.55,49.86,1.22,3.39-.29,8.65-.54,10.21-3.86.62-6.61,18.34-47.9,16.79-50.04-1.09-1.5-14.81-.2-17.65.04-20.57,1.71-60.3,6.04-77.42,16.34-15.61,9.4-27.71,25.5-39.32,39.16l-55.04,12.94-21.09,6.43c10.32-.45,46.1-5.6,53.42-1.24,9.41,5.61,13.16,40.23,14.87,50.7.17,1.05.5,3.52,2.04,3.2-.29-16.06-.79-32.77-6.46-47.95-2.39-6.41-6.77-6.04-.02-12.93,9.53-9.73,40.07-10.24,53.38-14.02l-11.14-2.32-18.17-.61c-.1-1.89,1.78-2.92,2.98-4.05,3.29-3.09,22.5-17.19,25.88-17.57,4.99-.55,34.11,7.01,36.32,10.48,1.82,2.86-5.39,8.36-6.55,11.13l-12.88,2.92ZM290.02,46.15c-.12,5.97-1.27,12.84-3.2,18.46-1.53,4.43-8.5,12.8-5.05,16.09,1.72,1.64,29.74,6.46,35.46,7.9,12.13,3.06,30.41,11.03,41.7,12.3,6.02.68,5.69-3.06,4.39-7.99-1.83-6.99-8.42-19.82-11.9-26.73-4.42-8.81-9.87-20.86-18.62-25.89-4.88-2.81-40.22-14.33-42.8-11.69-1.17,7.23,2.2,3.89,7.5,4.8,5.86,1.01,27.36,7.24,31.5,10.37,1.87,1.41,11.22,17.82,10.24,18.76l-46.8-10.62c-.58-.57.56-5.46-2.42-5.76ZM301.73,105.84c-4.92-1.98-9.94-4.98-14.92-6.76-23.13-8.24-65.74-2.88-91.16-.27-10.83,1.11-44.09,4.08-51.6,9.35-5.05,3.54-10.57,11.37-1.09,12.8,9.16,1.38,33.39,2.96,40.77-1.29,8.09-4.65,10.32-9.59,21.36-12.61,28.73-7.86,63.99-4.98,92.85-.35,1.25.2,4.08,1.24,3.8-.87ZM451.38,120.32c-12.18-7.22-24.52-14.25-36.81-21.31l-36.62,2.14c.52,10.09,16.46,14.1,17.32,23.08.64,6.68-10.77,33.1-5.43,36.43.91.57,18.15.96,21.51,1.35,22.99,2.62,46.13,6.36,69.2,8.17,12.9,1.01,28.57-.24,41.03,1.18,24.75,2.83,27.72,50.09,27.55,69.05l116.07,2.32-118.03-65.32c-32.23-18.39-64.19-38.36-95.79-57.09ZM35.58,149.13c-3.57-2.66-6.09,9.02,3.03,10.45,26.09-1.23,56.37,4.25,82.05,1.3,1.51-.17,3.41-.04,3.95-1.96.73-2.58-5.93-31.19-7.55-35.52-2.24-5.98-4.87-11.65-11.77-12.83-13.54-2.32-49.18.49-62.95,3.74-5.53,1.3-7.5,2.96-6.74,9.06,3.05-.23,4.05-2.85,7.22-3.9,8.34-2.78,49.25-6.75,57.29-4.88,5.86,1.37,6.77,9.28,8.48,14.91,1.89,6.22,5.2,17.74,5.49,23.89.06,1.32.25,2.53-1.05,3.4-1.59,1.06-19.36.67-22.97.57-2.77-.07-5.34-1.21-8.11-1.27-11.78-.25-28.99,1.68-39.84-.03-6.64-1.04-5.73-6.34-6.54-6.94ZM368.55,220.5c3.21-14.32,12.95-32.79,13-47.39.01-4.14-1.78-9.38-1.77-14.04.02-17.03,6.23-33.45-7.12-47.38-.36,6.06,4.07,11.99,4.21,18.14.18,7.71-3.28,17.69-3.66,25.69-.44,9.28,2.93,15.77,2.43,24.67-.69,12.22-6.13,24.81-7.95,36.53-.19,1.25-1.25,4.06.87,3.79ZM290.24,157.09c-11.03-28.24-36.36-39.89-65.65-31.72-2.32.65-25.07,11.07-21.33,14.39h9.37c1.85,4.81-11.53,30.38-13.48,30.41-1.59.03-3.6-7.49-6.44-5.25,2.49,3.14,2.68,9.87,4.61,12.78.78,1.19,1.15.79,2.4.68,8.97-13.95,16.02-26.71,32.53-32.49,24.74-8.66,42.64,3.47,58.36,20.8,24.83,1.33,50,4.08,74.06-3.37,1.9-.59,3.31.96,2.73-2.48-25.71-.53-51.62-1.51-77.15-3.74ZM45.56,131.57c18.04,1.87,39.07-1.39,57.45,0,3.3-2.3-.52-6.34-3.45-5.92l-60.44,2.41c-1.29,2.6,5.44,3.4,6.44,3.5ZM42.04,142.1h59.79c.36,0,2.19-1.91,1.75-2.91l-3.17-2.7-61.3,2.1c-.85,2.05,1.62,3.31,2.93,3.5ZM39.69,150.29h63.9c-.79-9.13-9.01-4.72-14.61-4.63-17.02.26-34.24.21-51.05,2.3-.33.33,1.32,2.22,1.76,2.33ZM175.12,257.95c10.31-7.51,15.17-21.92,18.17-33.93,4.66-18.68,8-41.52-4.11-57.93l-174.7-1.75c-.05,2.19-.52,4.88,1.93,5.68,43.61,2.87,87.49,1.48,131.2,2.46,2.77.06,5.34,1.18,8.11,1.27,4.26.13,25.17-1.17,26.4-.66,5.41,2.22,8.93,16.8,9.39,22.28,1.87,22.12-10.09,42.21-16.38,62.59ZM153.98,179.59l-139.5-3.56c-.4,9.15-.26,22.32,9.96,25.76,2.67-.02-3.75-15.61-1.24-17.64,6.47-.9,14.33-2.18,21.17-2.37,5.6-.15,13.11,1.25,18.72,1.33,7.02.09,53.64-.45,55.54,2.49,5.21,21.23-1.68,21.9-20.9,20.86-3.95,3.29,15.57,6.59,17.2,6.58,15.01-.11,12.79-19.14,22.65-25.3-.41,7.06-10.06,15.76-9.36,22.7.55,5.45,15.1,31.77,18.95,37.37.82,1.19,1.82,2.79,3.31,3.12-1.93-12.24-13.26-30.66-11.78-42.76.78-6.42,17.28-25.61,15.28-28.58ZM471.73,176.04c-7.71-2.52-10.93,10.33-12.32,16.36-3.05,13.19-1.56,25.43.62,38.63,1.95.31,1.29-2.86,1.21-4.12-.2-3.22-1.34-5.93-1.26-9.26.18-8.06,2.12-23.76,5.32-31.07,1.73-3.95,5.41-6.5,6.44-10.52ZM484.64,231.04v-22.82c0-2.62,2.48-13.43,3.46-16.44,1.38-4.26,6.72-10.67,7.12-12.8.66-3.55-4.38-1.31-5.93.27-7.36,7.46-7.6,30.64-6.97,40.67l2.33,11.13ZM513.95,191.84c-.93,4.24,0,14.74,0,19.89,0,.2,1.58,1.84,2.33,1.76l1.7-15.28,6.52-18.04-3.56-1.24c-.34,3.9-6.47,10.52-7,12.91ZM222.01,274.35c19.6,19.35,55.09,11.63,70.62-9.69,42.18-57.92-48.66-119.28-85.42-60.69-1.11,1.77-5.96,8.01-2.8,9.5,17.68-40.21,76.45-33.96,86.43,9.13,4.8,20.76-3.73,48.34-25.12,56.14-15.15,5.53-29.74,2.54-43.7-4.41ZM367.39,193.6l-59.78-3.52c-.91,1.31,1.66,14.17,5.25,14.06l51.47.06,3.05-10.6ZM286.48,236.88c4.67-55.62-78.07-62.61-82.04-6.41-.38,5.4-1.05,9.75,5.84,8.77,2.14-40.94,52.63-53.88,71.75-16.03l4.45,13.68ZM540.67,217.94c.56-.91-2.09-14-2.65-16.2-1.74-6.88-2.31-12.59-11.15-9.27.27,5.55,4.96,9.14,3.47,15.17-3.56-1.02-4.03-15.55-8.75-10.51-3.67,3.92.49,5.22.55,7.57.06,2.49-4.85,6.94-3.52,14.04,1.13,6.02,8.86.1,7.11,10.46-.26,1.52-7.14-1.2-6,5.93.48,3.01,3.07,2.51,3.44,3.05.24.34-1.17,2.47-1.02,3.89.79,7.91,6.48,4,6.9,4.3.38.26.39,2.72,1.99,3.29,5.58,1.99,10.34-10.05,9.87-14.53-.25-2.39-2.75-3.15-3.29-4.92-.44-1.42-.32-9.34.2-10.41.66-1.33,2.51-1.33,2.84-1.87ZM184.48,202.93c-.64-5.03-7.95-6.09-12.27-5.85-4.88.28-21.36,4.77-23.46,9.39-2.41,5.3,3.4,16.9,6.23,21.83,1.29,2.24,6.27,10.74,9.5,8.51,5.49-6.76-1.73-10.97-2.08-14.74-.38-4.09,17.39-17.68,22.08-19.14ZM239.6,207.64c-9.41,2.56-16.58,14.78-17.59,23.97-2.91,26.33,16.98,45.88,43.38,39.2l-14.37-1.44c-27.97-8.84-32.48-42.73-11.42-61.73ZM263.82,213.26c0-1.72-1.4-3.12-3.12-3.12s-3.12,1.4-3.12,3.12,1.4,3.12,3.12,3.12,3.12-1.4,3.12-3.12ZM82.48,218.18l-52.75-4.69c4.8,15.06,13.82,21.97,29.04,25.42,17.29,3.91,50.4,8.97,67.63,8.56,15.21-.36,4.12-14.13.62-21.11-2.2-.24-.96,2.45-.83,3.74.45,4.53,3.47,9.58-3.2,10.35-12.79,1.47-43.67-3.51-57.31-6.1-10.49-1.99-20.14-4.77-25.4-15,12.61-2.98,25.33.52,38.11-.01,1.43-.06,4.36.88,4.09-1.16ZM248.81,216c-2.56-4.06-11.51,3.25-3.47,5.11,3.32.77,5.04-2.61,3.47-5.11ZM277.1,220.53c-.89-1.3-8.53-2.19-7.01,2.89,1.22,4.07,9.61.9,7.01-2.89ZM247,225.55c-9.3,10.44,1.7,30,17.29,22.52,20.24-9.71-2.72-38.87-17.29-22.52ZM468.22,249.76v-18.14c0-.33-1.67-5.18-2.05-6.2-.68-1.84.65-3.15-2.64-2.57-.25,4.89,1.16,14.83-2.65,18.41-2.56,2.41-25.52,1.62-30.82,1.53-2.77-.05-5.34-1.22-8.11-1.27-13.69-.22-33.44-3.1-42.84,8.23,29.73-5.75,59.46,2.99,89.11.01ZM240.25,234.18c0-1.78-1.45-3.23-3.23-3.23s-3.23,1.45-3.23,3.23,1.45,3.23,3.23,3.23,3.23-1.45,3.23-3.23ZM283.07,236.29c0-1.67-1.36-3.02-3.03-3.02s-3.03,1.35-3.03,3.02,1.36,3.02,3.03,3.02,3.03-1.35,3.03-3.02ZM271.92,247.49c-4.05,1.25-.05,6.69,3.41,5.78s2.16-7.5-3.41-5.78ZM246.59,251.3c0-1.78-1.45-3.23-3.23-3.23s-3.23,1.45-3.23,3.23,1.45,3.23,3.23,3.23,3.23-1.45,3.23-3.23ZM261.97,258.53c0-1.67-1.36-3.02-3.03-3.02s-3.03,1.35-3.03,3.02,1.36,3.02,3.03,3.02,3.03-1.35,3.03-3.02Z"/>
              <path d="M535.06,228.7h-5.87c-.05-5.71-1.29-10.53,4.11-14.04,2.8,4.09,1.52,9.39,1.76,14.04Z"/>
              <ellipse cx="259.04" cy="235.43" rx="6.45" ry="6.44"/>
            </g>
          </g>
        </g>
      </g>
    </g>
  </g>
</svg>