<?xml version="1.0" encoding="UTF-8"?>
<svg id="Layer_2" data-name="Layer 2" xmlns="http://www.w3.org/2000/svg" viewBox="0 0 144.28 111.99">
  <defs>
    <style>
      .cls-1 {
        fill: #40c0ef;
      }

      .cls-2 {
        fill: #97989b;
      }

      .cls-3 {
        fill: #dcdde0;
      }

      .cls-4 {
        fill: #fff;
      }

      .cls-5 {
        fill: #effcfe;
      }

      .cls-6 {
        fill: #6a7175;
      }

      .cls-7 {
        fill: #42a8e8;
      }

      .cls-8 {
        fill: #147faf;
      }

      .cls-9 {
        fill: #adbac0;
      }

      .cls-10 {
        fill: #1c1a1e;
      }
    </style>
  </defs>
  <g id="Layer_1-2" data-name="Layer 1">
    <g>
      <path d="M96.21.16c.43-.16.82-.2,1.27-.13,1.67.26,7.33,9.85,8.21,10.13.57.18,2.94-1.53,3.85-.96l7.92,12.34c.59-.07.07-1.2.63-1.55.31-.2,2.42-.69,2.78-.42l6.52,13.43c.67-.19-.21-1.15.28-1.47.14-.09,3.22-.42,3.39-.2l3.68,13.22,3.19-.61,4.01,18.62c-.33.34-1.95.84-2.03,1.16-.18.72,3.6,8,4.03,9.41.51,1.7.66,3.03-1.16,3.92-2.49,1.21-7.18,2.09-10.02,3.06-28.68,9.82-58.17,20.88-87.09,29.59-1.48.45-7.33,2.38-8.36,2.28-.65-.07-1.29-.91-1.93-1.01-.52-.08-2.06.39-2.76.13L.04,71.18c-.24-1.57.58-1.97,1.6-2.91L96.21.16Z"/>
      <path class="cls-7" d="M90.65,10.3c.93,3.06,5.37,4.21,8.25,3.98l-3.52.79c-2.11-.11-3.41-1.04-5.34-1.64l-31.95,23.24-1.23,1.42c-.9.32-4.14,2.59-4.95,3.28l.15-.88c-12.05,8.94-24.36,18.13-36.69,26.94-.48.58-.17.68-.17,1.16-.02,1.14.4,2.21.46,3.33.03.67-.51,1.74-.15,2.36-.24.76-1.71,2.83-1.6,3.28l16.06,19.6c3.63-1.64,6.85-.94,10.18.9,24.2-18.43,48.46-36.72,72.99-54.71-1.27-4-.51-7.17,1.95-10.44l-14.9-18.69c.59-.42-.49-1.47-.7-2.06.59-.13,1.16-.28,1.58-.77l.5.15,16.72,21.49c-3.42,2.63-3.68,7.33-1.99,11.01-25.44,19.06-50.6,38.52-75.71,57.99-.31-.08-.39-.45-.61-.59-.94-3.87-6.23-4.96-9.5-3.39-.69.33-.98.71-.83,1.51-.11.03-.63.87-1.03.35l-18.23-22.32c4.38-1.68,5.15-6.79,3.89-10.83,11.29-8.75,22.95-17.04,34.31-25.69,6.89-5.25,13.53-10.87,20.44-16.08,4.58-3.46,15.94-12.87,20.35-14.95,1.18-.56.61-.16,1.27.24Z"/>
      <path class="cls-7" d="M90.13,89.29c.58.46,2.01-.08,2.63-.28,11.56-3.84,26.41-8.71,37.29-13.79.46-.21.4-.12.48-.68.73-.28,3.46-1.14,3.65-1.75.21-2.58-2.24-6.74,1.57-7.09l1.09,8.84-.85.68c-26.66,9.75-53.76,18.36-80.35,28.28-.39-.19.31-.62.39-.66,9.92-4.94,23.51-9.43,34.09-13.55Z"/>
      <path class="cls-4" d="M69.03,25c-6.91,5.22-13.55,10.84-20.44,16.08-11.36,8.66-23.01,16.94-34.31,25.69,1.25,4.05.49,9.15-3.89,10.83,3.35-3.5,3.85-7.14,1.01-11.23l57.63-41.38Z"/>
      <path class="cls-7" d="M86.37,76.47c.29.52,1.22-.19,1.49-.37,10.35-6.87,20.56-13.98,30.85-20.92l-.74-.37c1.24-.75,6.81-3.61,7.35-4.44.48-.74-.26-2.87-.15-3.96.08-.85,1-2,1.03-2.95l2.43,7.86-55.45,34.88c4.3-3.27,8.8-6.49,13.19-9.72Z"/>
      <path class="cls-8" d="M134.15,61.54c-18.47,9.22-37.15,18.01-55.75,26.96l-1.77.35,1.55-1.23c.66-.35,1.31-.71,1.97-1.05,17.14-8.94,35.16-17.11,52.25-26.46.81-.4,1.48.79,1.75,1.42Z"/>
      <path class="cls-7" d="M129.47,69.22c.86-.02-.13,1.22-.39,1.4l-62.3,27.2c20.6-10.17,41.44-19.83,62.69-28.6Z"/>
      <path class="cls-7" d="M134.15,61.54c-.27-.64-.94-1.82-1.75-1.42-17.1,9.35-35.11,17.52-52.25,26.46,17.06-9.59,34.36-18.8,52.08-27.16.29-2.35-1.76-3.97,1.14-5.12l1.6,6.76-.81.48Z"/>
      <path class="cls-7" d="M128.9,56.53c.2-.05.45-.18.63-.07.42.34-4.54,3.3-4.97,3.57-11.7,7.25-23.72,14.26-35.62,21.18-3.78,2.2-7.62,4.38-11.53,6.32,9.36-5.97,18.67-12.06,28.2-17.75,4.51-2.69,19.32-12.25,23.28-13.26Z"/>
      <path class="cls-8" d="M86.37,76.47c10.56-7.76,20.34-14.86,31.6-21.67l.74.37c-10.29,6.94-20.51,14.05-30.85,20.92-.27.18-1.2.89-1.49.37Z"/>
      <path class="cls-8" d="M130.52,74.54c-.08.56-.02.46-.48.68-10.88,5.08-25.73,9.95-37.29,13.79-.61.2-2.05.74-2.63.28,13.36-5.2,27.06-9.59,40.39-14.75Z"/>
      <path class="cls-7" d="M116.17,48.74l.46-.02c-19.49,15.16-39.24,30.24-59.08,44.91,19.26-15.32,39.02-30,58.62-44.88Z"/>
      <path class="cls-7" d="M122.07,46.33c.5.05.55,1.36.5,1.64-.28,1.67-6.07,4.27-7.68,5.36-5.12,3.47-9.94,7.47-15.29,10.61l22.47-17.62Z"/>
      <path class="cls-4" d="M99.49,12.18c.21.59,1.29,1.64.7,2.06-1.72.71-2.95.93-4.81.83l3.52-.79c-2.88.23-7.32-.92-8.25-3.98,3.9,2.35,3.97,2.94,8.84,1.88Z"/>
      <path class="cls-4" d="M39.98,101.46c-4.26-2.72-5.06-3.22-10.33-1.88-.15-.8.14-1.18.83-1.51,3.27-1.57,8.55-.47,9.5,3.39Z"/>
      <path class="cls-7" d="M78.4,88.5c-3.54,1.7-7.02,3.57-10.61,5.16,3.29-2.16,6.88-4.18,10.39-6.04l-1.55,1.23,1.77-.35Z"/>
      <path class="cls-7" d="M123.56,34.06l-.13.22c-3.85-4.93-7.6-9.98-11.29-15.03.21-.19,2.23,2.4,2.43,2.65,3.1,3.95,6.03,8.11,8.99,12.17Z"/>
      <path class="cls-4" d="M51.92,41.37c.81-.7,4.05-2.97,4.95-3.28,23.71-8.36,36.67,26.09,15.23,34.51-20.34,7.98-35.89-17.73-20.18-31.22Z"/>
      <path d="M57.35,39.64c23.44-8.71,34.88,27.86,10.59,32.69-21.33,4.24-28.37-26.09-10.59-32.69Z"/>
      <path class="cls-4" d="M58.92,42.22c3.23-1.15,5.48-.2,7.42,2.52l-3.04,3.09c-.91.25-2.11-3.36-4.38-1.88-2.92,1.9,3.08,8.17,4.46,8.18.63,0,4.82-3.82,5.36-3.48,2.3,3.72-.55,3.54-2.84,5.73,1.38,1.49,1.76,3.32,2.06,5.25,2.89-1.18,5.96-2.89,6.54-6.19,1.96,2.2,3.14,1.89,1.86,4.84-2.2,5.07-9.35,5.34-13.24,9.17l-2.65-3.52c1.27-1.57,4.22-1.8,3.41-4.2-1.65-4.89-4.25-.11-5.54-.2-.2-.01-2.14-1.72-2.6-1.86l3.59-2.76c-3.33-2.21-5.82-4.37-5.16-8.75.38-2.53,2.31-5.06,4.75-5.93Z"/>
      <path d="M95.38,15.07c1.86.1,3.09-.12,4.81-.83l14.9,18.69c-2.46,3.27-3.22,6.44-1.95,10.44-24.54,17.98-48.79,36.28-72.99,54.71-3.32-1.83-6.55-2.53-10.18-.9l-16.06-19.6c-.12-.45,1.36-2.52,1.6-3.28.58-1.83.67-3.92-.31-5.69,0-.48-.31-.57.17-1.16,12.33-8.8,24.64-18,36.69-26.94l-.15.88c-15.71,13.5-.16,39.21,20.18,31.22,21.44-8.41,8.48-42.87-15.23-34.51l1.23-1.42,31.95-23.24c1.93.6,3.23,1.53,5.34,1.64Z"/>
      <path class="cls-5" d="M15.51,74.28c-.36-.62.19-1.7.15-2.36-.06-1.12-.47-2.19-.46-3.33.97,1.76.89,3.86.31,5.69Z"/>
      <path class="cls-4" d="M35.47,56.64c-1.4,2.31-14.96,11.15-15.29,12.47-.14.55.35,3.43.22,4.6-.1.84-1.3,3.85-1.18,4.2l11.64,13.83c1.17,1.21,3.39.22,5.19.28,1.54.06,3.23.68,4.73,1.05l17.11-12.28c-5.83,4.43-11.65,8.89-17.37,13.46-3.31-.99-6.34-1.16-9.78-.81l-12.87-15.75c.99-2.84,1.85-5.79.96-8.8,5.37-4.32,11.16-8.1,16.65-12.26Z"/>
      <path class="cls-7" d="M57.88,80.8l-17.11,12.28c-1.49-.37-3.18-.99-4.73-1.05-1.8-.07-4.02.92-5.19-.28l-11.64-13.83c-.12-.35,1.09-3.36,1.18-4.2.13-1.17-.36-4.05-.22-4.6.33-1.33,13.89-10.17,15.29-12.47,1.78-1.35,7.11-4.88,8.23-6.15.21-.24,2.54-5.82,3.08-5.14-8.73,13.61,2.43,31.68,18.3,30.02-2.3,1.93-4.81,3.61-7.2,5.43Z"/>
      <path d="M35.25,70.28c9.55-3.11,11.15,11.1,1.31,11.95-7.19.62-7.92-9.79-1.31-11.95Z"/>
      <path class="cls-2" d="M37,81.37l-.09-.35c.93-.1,2.79-1.28,3.5-1.99.38-.38,1.66-3.06,1.86-1.86-.88,2.19-2.9,3.86-5.27,4.2Z"/>
      <path class="cls-3" d="M35.47,71.9c.4-.13.83-.18,1.23-.31,1.04.23-1.79,1.14-1.93,1.23-1.15.78-2,3.1-2.19,3.15-1.67.42,1.38-3.56,2.89-4.07Z"/>
      <path class="cls-2" d="M34.46,78.66c.3-.44.85.24,1.01.31,2.08.85,3.45-.14,4.42-2.04-.08,2.45-3.72,3.45-5.43,1.73Z"/>
      <path class="cls-9" d="M37.09,73.54l-.09-.35c1.67-.18,2.96,1.02,3.09,2.67l-.74-1.49c-.89-.57-1.19-.85-2.25-.83Z"/>
      <path class="cls-4" d="M36.91,81.02l.09.35c-.56.08-1.54.21-1.77-.39.42-.59.99.12,1.68.04Z"/>
      <path class="cls-6" d="M37,73.19l.09.35c-3.66.08-4.04,4.74-.5,5.43h-1.12c-.15-.06-.7-.74-1.01-.31-1.38-1.39-1.22-3.66.39-4.75.49-.33,1.56-.66,2.14-.72Z"/>
      <path class="cls-10" d="M33.81,76.4c.2.18.48,1.34.35,1.4-.25-.44-.78-.87-.35-1.4Z"/>
      <path class="cls-4" d="M106.54,26.97l-.13.22c-1.08-1.3-6.28-7.83-7.11-8.36-.67-.43-.72.12-.9.13-2.99.23-5.55.73-8.45-.68-5.97,4-11.89,8.33-17.9,12.1,6.1-4.46,12.16-8.97,18.34-13.33,2.71,1.45,5.87,1.35,8.82.68,2.49,3.05,4.91,6.14,7.33,9.23Z"/>
      <path class="cls-4" d="M110.91,33.31c-.71,3.02-2.02,5.54-1.4,8.91-6.05,4.57-12.22,8.97-18.29,13.5,5.42-4.97,11.57-9.07,17.33-13.63.23-2.97.41-6.42,2.36-8.77Z"/>
      <path class="cls-1" d="M110.65,32.26c-1.27-1.73-2.87-3.41-4.25-5.08l.13-.22c.99,1.27,3.68,3.94,4.11,5.3Z"/>
      <path class="cls-8" d="M106.41,27.19c1.38,1.67,2.98,3.34,4.25,5.08.1.3.23.33.33.57l-.53.13c-4.35-4.37-8.31-9.11-12.06-14,.17-.01.22-.56.9-.13.83.53,6.03,7.05,7.11,8.36Z"/>
      <path class="cls-7" d="M98.4,18.96c3.75,4.9,7.7,9.64,12.06,14l.53-.13c-.1-.24-.23-.27-.33-.57.04.06.54.02.55.7,0,.16-.28.33-.28.35-1.95,2.35-2.13,5.81-2.36,8.77-5.76,4.56-11.91,8.66-17.33,13.63-.55.41-6.79,5.55-7.07,5.21,3.72-12.81-6.17-24.88-19.04-25.56,2.23-1.77,4.64-3.31,6.94-4.99,6.01-3.77,11.93-8.11,17.9-12.1,2.9,1.41,5.46.9,8.45.68Z"/>
      <path d="M90.39,29.7c9.8-3.77,11.8,11.46,1.27,11.77-7.32.22-6.77-9.66-1.27-11.77Z"/>
      <path class="cls-9" d="M96.82,34.61c1.42.02-.1,3.07-.57,3.68-.84,1.07-2.45,2.08-3.83,2.17.95-1.03,2.23-1.18,3.22-2.39.75-.92,1.15-2.27,1.18-3.46Z"/>
      <path class="cls-3" d="M90.65,31.5c.68-.28,2.86-.9,3.28-.26l-.04.57c-1.71-.71-3.41,0-4.73,1.18-.17.15-1.17,2.39-1.47,1.2-.13-.5,2.4-2.47,2.95-2.69Z"/>
      <path class="cls-2" d="M91.66,32.55c.8-.34,2.51-.24,3.17.42,3.19,3.16-2.41,7.37-4.77,4.73-1.63-1.83-.44-4.29,1.6-5.14Z"/>
      <path d="M91.4,32.99c1.01-.42,2.56-.03,3.26.77.42.47.54,2.24.66.39,1.43,4.31-6.63,5.67-5.73.88.07-.36,1.48-1.9,1.82-2.04Z"/>
    </g>
  </g>
</svg>