<?xml version="1.0" encoding="UTF-8"?>
<svg id="Layer_2" data-name="Layer 2" xmlns="http://www.w3.org/2000/svg" viewBox="0 0 40.23 40.23">
  <defs>
    <style>
      .cls-1 {
        fill: #fff;
      }

      .cls-2 {
        fill: none;
        stroke: #fff;
        stroke-miterlimit: 10;
        stroke-width: 4px;
      }
    </style>
  </defs>
  <g id="Layer_1-2" data-name="Layer 1">
    <g>
      <g>
        <path class="cls-1" d="M14.2,18.02c2.03-3.23,6.22-8.37,9.96-9.54,1.42-.44,2.75.06,3.66,1.22-1.83,1.85-3.85,3.61-5.79,5.36-.4-.4-1.05-.52-1.52-.16-1.17.9-4.79,6.18-5.2,7.59-.17.58.18,1.12.7,1.36l-2.77,7.34c-.19.17-1.43-.63-1.61-.79-2.79-2.44,1.03-9.96,2.57-12.4Z"/>
        <path class="cls-1" d="M22.32,15.35l5.71-5.24c.47.49,1.5,1.08.95,1.79-.41.52-4.5,4.27-5.05,4.61-.64.4-1.2-.76-1.61-1.16Z"/>
        <path class="cls-1" d="M16.35,24.07c.08-.07,1.99.5,1.69,1.04l-2.52,6.51c-.42.63-1.34-.17-1.91-.25l2.74-7.3Z"/>
      </g>
      <circle class="cls-2" cx="20.11" cy="20.11" r="18.11"/>
    </g>
  </g>
</svg>