<?xml version="1.0" encoding="UTF-8"?>
<svg id="Layer_2" data-name="Layer 2" xmlns="http://www.w3.org/2000/svg" viewBox="0 0 29.65 28.68">
  <defs>
    <style>
      .cls-1 {
        fill: #fff;
      }

      .cls-2 {
        fill: #42a8e8;
      }
    </style>
  </defs>
  <g id="Layer_1-2" data-name="Layer 1">
    <g>
      <g>
        <path class="cls-2" d="M19.76,22.33c-1.62-1.24-3.21-2.52-4.82-3.78-1.66,1.19-3.25,2.48-4.87,3.73l1.99-5.84-4.8-3.39,5.93-.02,1.74-5.67,1.74,5.67,5.93.02-4.89,3.34,2.03,5.93Z"/>
        <path class="cls-2" d="M14.9,0l4.41,9.25,10.34,1.86-10.87-1.14L14.9.15l-3.83,9.83L.24,11.17l8.53,6.35-3.22,11.17,2.35-10.83L0,11.07c3.52-.48,7.02-1.22,10.54-1.82L14.9,0Z"/>
        <path class="cls-1" d="M19.76,22.33l-2.03-5.93,4.89-3.34-5.93-.02-1.74-5.67-1.74,5.67-5.93.02,4.8,3.39-1.99,5.84c-.1.08-.25.34-.44.31l1.94-6.15-5.62-3.97,6.76-.02,2.23-7.02,2.18,7.02,6.76.02-5.62,3.97c.61,2.07,1.35,4.15,1.86,6.22-.12-.12-.23-.24-.36-.34Z"/>
      </g>
      <polygon class="cls-2" points="29.52 11.24 21.94 17.85 24.2 28.43 21.07 17.51 29.52 11.24"/>
      <polygon class="cls-2" points="14.9 22.19 23.78 28.12 14.9 23.06 6.08 28.14 14.9 22.19"/>
    </g>
  </g>
</svg>