<?xml version="1.0" encoding="UTF-8"?>
<svg id="Layer_2" data-name="Layer 2" xmlns="http://www.w3.org/2000/svg" viewBox="0 0 124.74 125.35">
  <defs>
    <style>
      .cls-1 {
        fill: #fff;
      }

      .cls-2 {
        fill: #00071a;
      }

      .cls-3 {
        fill: #cdecf9;
      }

      .cls-4 {
        fill: #42a8e8;
      }

      .cls-5 {
        fill: #fbf3f6;
      }

      .cls-6 {
        fill: #273244;
      }
    </style>
  </defs>
  <g id="Layer_1-2" data-name="Layer 1">
    <g>
      <path class="cls-1" d="M82.66,83.23c.44-.1.68.22.93.5.33.37,4.73,7.84,4.87,8.3.06.2.18.35.14.57-.91.35-.99,1.1-1.72.14-.38-.51-4.59-7.84-4.72-8.3s0-1.1.5-1.22Z"/>
      <path class="cls-1" d="M41.29,83.23c.59-.18,1.06.33,1.07.93l-5.22,9.23-1.36-.93c.92-.94,5-9.07,5.51-9.23Z"/>
      <path class="cls-1" d="M62.05,88.67c.48-.11.65.23.93.5l-.07,10.66-1.5-.21c.63-2.48-.49-8.44.14-10.45.01-.03.47-.49.5-.5Z"/>
      <polygon class="cls-1" points="60.76 78.51 63.98 78.72 63.76 83.66 60.54 83.59 60.76 78.51"/>
      <path d="M61.9,79.51c1.05-.16,1.58.87,1.36,1.79-.23.96-1.23.12.07,1.79-.95-.46-1.09-.35-2.08-.21-.44-.59,2.78-2.04.79-2.65l-.79.93c-.3-.57-.02-1.54.64-1.65Z"/>
      <path class="cls-1" d="M10.95,61.9c2.45.7,8.47-.52,10.45.14.57.19.56,1.24,0,1.43-1.97.66-8-.55-10.45.14v-1.72Z"/>
      <path class="cls-1" d="M18.39,40.14c-.89,3.28-2.41,6.35-3.22,9.66-.89,3.61-1.04,7.34-1.93,10.95-.63-7.08,1.58-14.57,5.15-20.61Z"/>
      <path class="cls-1" d="M12.96,65.33s.44-.02.5.07c.18.28.41,5.7.57,6.73.75,4.67,2.32,9.17,4.08,13.52-2.01-1.96-6.26-19.46-5.15-20.32Z"/>
      <ellipse class="cls-1" cx="62.37" cy="62.68" rx="62.37" ry="62.68"/>
      <path d="M60.19,3.94c43.82-1.39,73.85,43.48,55.6,83.51-19.49,42.74-80.37,45.9-104.19,5.44C-11.06,54.4,15.57,5.35,60.19,3.94Z"/>
      <path class="cls-1" d="M59.33,5.8c23.57-1.21,46.64,14.09,55.03,35.99C104.1,17.96,78.11,4.15,52.46,8.66,26.65,13.19,6.47,35.55,5.51,61.9c-.02-29.13,24.85-54.62,53.81-56.1Z"/>
      <path class="cls-1" d="M107.42,34.42c15.26,22.92,10.72,53.36-10.59,70.7-11.16,9.08-24.59,12.64-38.93,11.88l-5.01-.57,11.02.29c36.88-2.03,62.93-39.89,47.44-74.78-1.15-2.58-2.8-4.94-3.94-7.51Z"/>
      <path class="cls-1" d="M85.45,19.54c-5.87-4.04-13.69-6.26-20.9-6.08,7.34.68,14.4,2.81,20.9,6.23-.05,1.25-4.3,6.45-4.15,7.66.11.9,1.13,1.58,2.08,1.22.73-.28,3.63-6.08,4.37-7.23.49-.76,1.06-1.46,1.43-2.29l.36-.07c5.43,3.47,10.26,7.85,14.1,13.02-.53-.1-1.51.32-2,.57-3.43-4.58-7.9-8.72-12.95-11.45-.37.25-.05.38.14.57,1.49,1.5,4.73,3.36,6.58,5.01,2.11,1.88,4.09,4.02,5.94,6.15-3.07,1.78-5.68,3.75-9.02,5.3-7.2-8.96-18.48-14.33-30.06-14.31.02-.12-.03-.39,0-.43.17-.22,1.27-.55,1.43-1.22.22-.89-.2-5.42-.14-6.87.02-.52.15-3.98.36-4.08,7.93.26,15.99,2.16,22.83,6.23l-1.29,2.08Z"/>
      <path class="cls-1" d="M102.91,34.85l1.57,1.86c-1.21.81-7.85,4.35-8.01,5.08-.26,1.16.69,1.92,1.79,1.93,2.38-1.65,4.93-3,7.51-4.29.96,2.34,2.28,4.51,3.22,6.87-.16-1.2-.8-2.48-1.29-3.58-.45-1-1.07-2.61-1.93-3.29.23-.12,1.68-1.16,1.79-1.14,4.07,6.81,5.94,14.88,6.37,22.83-.12.35-1.37.2-1.72.21-2.75.13-6.27-.34-8.87,0-1.46.19-1.06.7-1.86,1.43-.02.02-.2-.01-.29,0,.04-7.94-2.52-15.63-6.87-22.18.12-.11.36-.38.43-.43,2.45-1.82,5.53-3.69,8.16-5.3Z"/>
      <path class="cls-1" d="M97.68,82.65l9.45,5.01.21.21c-.24.22-.71,1.34-.93,1.36-.51.05-7.53-4.94-8.87-5.15-.65-.5-.38-1.03.14-1.43Z"/>
      <path class="cls-1" d="M18.11,36.28l9.09,5.37c.44.46-.23,1.35-.64,1.36-.55.02-8.17-4.89-9.37-5.37l.93-1.36Z"/>
      <path class="cls-1" d="M113.78,62.04c.03.22.04,1.5-.07,1.57h-10.59c-.98-.89-.58-.82-.07-1.57h10.73Z"/>
      <path class="cls-1" d="M26.55,82.51c.62.02,1.08,1.22.29,1.57l-8.95,5.08-.72-1.29c1.27-.43,8.81-5.39,9.37-5.37Z"/>
      <path class="cls-1" d="M37,17.82c.53.03,4.53,8.17,5.37,9.09-.09.91-.73,1.26-1.43.57l-5.15-8.87c.02-.14,1.14-.79,1.22-.79Z"/>
      <path class="cls-1" d="M87.38,17.82l1.36.79-5.65,9.23h-.43c-.1-.02-.64-.7-.64-.79-.02-.53,4.87-8.02,5.37-9.23Z"/>
      <path class="cls-1" d="M106.41,36.28l.93,1.36-8.95,5.22c-.58.2-1.34-.33-1.22-.93.11-.55,8.32-4.61,9.23-5.65Z"/>
      <path class="cls-1" d="M62.91,11.23l.07,10.66c-.5.76-1.12.52-1.57-.14.59-1.3-.3-9.88,0-10.3.16-.23,1.23.12,1.5-.21Z"/>
      <path class="cls-1" d="M85.45,19.54s0,.1,0,.14c-6.5-3.42-13.56-5.55-20.9-6.23,7.21-.18,15.02,2.05,20.9,6.08Z"/>
      <path class="cls-2" d="M112.21,61.33c-.17.82,1.18.25,1.65.43.23.25-.07.27-.07.29h-10.73c.06-.09.25-.57.29-.72,2.6-.34,6.12.13,8.87,0Z"/>
      <path class="cls-1" d="M104.63,36.71l-1.29-2.15c.3-.18.98-1.06,1.36-1l1.36,2.22c-.47.33-.96.61-1.43.93Z"/>
      <path class="cls-1" d="M103.34,34.56l1.29,2.15s-.11-.02-.14,0l-1.57-1.86c.12-.07.24-.17.43-.29Z"/>
      <path class="cls-1" d="M92.32,38.14c-.07.03-.54.53-.79.57-16.96-20.6-49.72-17.7-62.62,5.8-11.4,20.77-.65,47.62,21.97,54.46,34.68,10.48,62.71-28.1,42.58-57.75.19-.35.63-.45.86-.64,4.35,6.55,6.91,14.24,6.87,22.18-.17,35.57-44.39,52.46-67.98,25.98C10.87,63.65,28.76,23.87,62.26,23.83c11.57-.02,22.86,5.35,30.06,14.31Z"/>
      <path class="cls-1" d="M101.62,32.56s-.07.16-.29.29c-1.85-2.14-3.83-4.28-5.94-6.15-1.86-1.65-5.09-3.51-6.58-5.01-.19-.19-.51-.32-.14-.57,5.05,2.73,9.52,6.87,12.95,11.45Z"/>
      <path class="cls-4" d="M62.26,23.4s.02.31,0,.43c-33.5.04-51.39,39.83-29.05,64.91,23.59,26.48,67.81,9.59,67.98-25.98.09-.01.26.02.29,0l1.36,1.57,10.95-.07c-.12,7.99-2.16,16.02-6.08,22.97l-9.59-5.44c-5.25,1.72,2.62,4.64,4.44,5.72,1.23.74,2.47,1.55,3.65,2.36-4.23,6.82-10.07,12.51-16.82,16.82l-5.37-9.09c-.83-1.55-2.94-.36-2.86.86.05.78,5.64,8.67,5.58,9.59-6.8,4.3-14.99,6.03-22.97,6.37l-.07-11.23c-1.07-1.3-1.8-1.3-2.86,0v11.02c-8.08.17-16.15-2.16-23.19-6.01l5.58-9.73c-.34-1.45-1.37-2.17-2.72-1.14l-5.37,9.37c-6.79-4.28-12.51-10.06-16.82-16.82l9.23-5.37c1.22-1.29.33-2.69-1.29-2.72l-9.45,5.44c-3.83-6.96-6.01-15.06-6.01-23.04h11.02c1.21-.99,1.13-1.86,0-2.86l-11.09-.21c.23-7.88,2.1-16.14,6.23-22.83l9.45,5.44c4.95-1.77-1.92-4.23-3.72-5.3-1.48-.88-2.93-1.84-4.37-2.79,4.25-6.79,10.03-12.56,16.82-16.82l5.22,9.09c1.12,1.32,2.73.65,2.86-1l-5.44-9.59c6.96-3.9,14.98-5.88,22.97-6.08l.07,11.09,1.43,1.07Z"/>
      <path class="cls-1" d="M35.14,21.25c.21.33-.51.83-.72,1-1.13.95-2.46,1.73-3.58,2.72-3.84,3.4-6.67,7.2-9.88,11.16,2.99-6.18,8.51-11.15,14.17-14.88Z"/>
      <path class="cls-3" d="M57.9,13.24c.66-.04,1.34.03,2,0-1.88.51-4.03.4-6.01.72-4.96.78-9.64,2.56-14.1,4.79l3.51-1.93c4.63-1.82,9.59-3.26,14.6-3.58Z"/>
      <path class="cls-5" d="M105.77,39.43c.87.68,1.49,2.29,1.93,3.29.49,1.1,1.12,2.38,1.29,3.58-.94-2.36-2.26-4.53-3.22-6.87Z"/>
      <path class="cls-2" d="M92.32,38.14c3.34-1.54,5.95-3.52,9.02-5.3.21-.12.27-.28.29-.29.49-.26,1.47-.67,2-.57,1.55.29-.08,1.08-.14,1.14-.06-.22-1.03.12-1.07.14-7.16,3.72-14.27,8.68-21.18,12.88-2.4,1.45-17.81,10-18.25,11.45l-.29.21c.37.12,1.01.1,1,.64-3.14-1.76-6.33,1.56-4.58,4.65,1.65,2.91,6.81,1.24,6.01-2.65h.43c9.57-6.97,19.07-13.97,28.77-20.75l.43.43c-.07.05-.3.32-.43.43-.23.19-.67.29-.86.64,20.13,29.65-7.9,68.23-42.58,57.75-22.62-6.84-33.37-33.69-21.97-54.46,12.9-23.49,45.66-26.39,62.62-5.8.24-.04.72-.54.79-.57Z"/>
      <path class="cls-1" d="M62.26,26.83l.21,6.87.21-6.87c.08.02.69-.15.86.07l.07,6.94.21-6.8c.21-.42,1.04-.13,1.14.14.39.97-.24,5.59-.07,6.94l-5.94-.21.07-5.94c-3.73-.11-7.39,1.17-10.73,2.72-9.39,4.33-17.21,12.67-21.18,22.18,3.71-15.18,17.87-25.91,33.35-26.62.6.35-.12,6.53.21,7.37.06.16.34.28.5.21.46-.19.09-6.06.21-6.94.26-.48.82-.07.86-.07Z"/>
      <path d="M62.69,26.83l-.21,6.87-.21-6.87c.13,0,.31-.02.43,0Z"/>
      <path class="cls-1" d="M86.38,46.01c.05,0,.68.54.79.64v24.47l-4.08,4.51h-13.17c-.3-.09-4.14-4.35-4.22-4.65-.15-.56-.1-5.81,0-6.58.02-.17.79-3.14.86-3.29.36-.77,3.21-2.22,3.86-3.01l.29.14v11.16c.16.11.87.77.93.79.47.12,9.27.14,9.73,0,.13-.04.47-.54.64-.64v-20.18c.58-.36,4.09-3.35,4.37-3.36Z"/>
      <path class="cls-1" d="M41.58,41.72h12.59c1.27,1.59,5.5,4.7,4.51,6.94-.12.27-4.84.32-5.08.21-.3-.13-.05-1.31-1-1.57-.46-.13-9.13-.13-9.59,0-1.32.37-.55,3.12-.86,4.15l-4.87.14c-.26-.12-.33-4.68-.21-5.08.17-.6,3.97-3.9,4.51-4.79Z"/>
      <path class="cls-1" d="M70.2,41.72h12.45l1.36,1.65c-1.57.61-5.14,3.65-6.51,3.94-1.23.26-6.25-.57-6.66.64-.34,1.04.57,2.58-.5,3.51-.94.81-3.2.28-4.44.43-.26-.12-.33-4.96-.21-5.37.19-.64,3.9-3.95,4.51-4.79Z"/>
      <polygon class="cls-1" points="65.48 53.17 67.41 53.24 65.48 54.46 65.48 53.17"/>
      <path class="cls-1" d="M37.29,53.03h16.89c.45.68,4.45,4.33,4.51,4.65.06.35-1.08,1.52-1.14,2.15-.05.49.33,3.2.43,3.86.03.22.67,1.05.72,1.29.08.46.09,5.71,0,6.01-.2.68-3.85,3.68-4.37,4.65h-12.88l-4.37-4.79.21-17.82Z"/>
      <path class="cls-2" d="M42.73,58.61c.47-.15,9.4-.13,9.88,0,.05.01.77.58.79.64.16.48.14,9.67,0,10.16-.02.05-.73.77-.79.79-.45.13-8.98.12-9.45,0-.15-.04-.89-.67-.93-.79-.15-.5-.2-9.97,0-10.45.24-.02.41-.33.5-.36Z"/>
      <path class="cls-1" d="M92.96,60.75c.35.46,2.69-.19,2.93.36-.07,3.32.9,3.92-3.01,3.72l.07-4.08Z"/>
      <path d="M93.68,61.18c.33,0,.26,3.05.14,3.15-.56.46-.45-3.15-.14-3.15Z"/>
      <path d="M94.82,61.33l.14,3.01c-.65-.1-.38-3.01-.14-3.01Z"/>
      <path class="cls-1" d="M31.28,60.75c.32.07.15.18.36.36l-.14,3.72-2.79-.07-.21-3.65c.08-.17,2.65-.39,2.79-.36Z"/>
      <path d="M30.56,61.33c.55-.45.41,2.91.29,3.01-.55.45-.41-2.91-.29-3.01Z"/>
      <path d="M29.42,61.18l.14,3.15c-.65-.12-.38-3.15-.14-3.15Z"/>
      <path class="cls-1" d="M97.11,60.9c.38.07,1.61-.19,1.79.21.1.22.06,3.53-.21,3.65-2.44,1.09-1.92-2.5-1.57-3.86Z"/>
      <path d="M97.97,61.18c.33,0,.26,3.05.14,3.15-.56.46-.45-3.15-.14-3.15Z"/>
      <path class="cls-1" d="M25.69,60.9c.08-.05,1.69-.01,1.79.21-.11.53.23,3.45-.21,3.65-.16.07-1.66.07-1.79-.21-.11-.25-.04-3.5.21-3.65Z"/>
      <path d="M26.41,61.18c.24,0,.5,3.03-.14,3.15l.14-3.15Z"/>
      <path class="cls-1" d="M103.48,33.13c-2.1,2.2-6.5,4.72-9.16,6.58-9.7,6.78-19.2,13.79-28.77,20.75-.05-.82-.54-.62.07-1.29,2.4-2.65,14.98-10.84,18.75-13.45,5.42-3.75,11.4-7.15,16.67-11.02.26-.14.25-.16.43-.29.04-.03.34.02.43-.21-.25-.26-.38.19-.43.21-.19.12-.24.15-.43.29-3.34,1.85-6.71,3.7-9.95,5.72-8.24,5.17-17.09,12.21-25.62,16.6-1.11.57-1.2.72-2.5.57.44-1.45,15.85-10,18.25-11.45,6.91-4.2,14.02-9.16,21.18-12.88.05-.02,1.02-.36,1.07-.14Z"/>
      <path d="M101.05,34.71c-5.28,3.87-11.26,7.27-16.67,11.02-3.77,2.61-16.35,10.81-18.75,13.45-.61.67-.12.46-.07,1.29h-.43c-.15-.73-.78-1.64-1.43-2,.01-.54-.63-.53-1-.64l.29-.21c1.31.15,1.4,0,2.5-.57,8.53-4.39,17.38-11.43,25.62-16.6,3.23-2.03,6.61-3.87,9.95-5.72Z"/>
      <path class="cls-6" d="M101.48,34.42c-.18.13-.17.14-.43.29.19-.14.23-.17.43-.29Z"/>
      <path class="cls-6" d="M101.48,34.42s.18-.48.43-.21c-.09.23-.39.19-.43.21Z"/>
      <path class="cls-1" d="M63.69,58.46c.65.37,1.28,1.28,1.43,2,.8,3.89-4.36,5.56-6.01,2.65-1.75-3.09,1.44-6.41,4.58-4.65Z"/>
      <path d="M61.33,59.04c3.44-.55,3.67,4.27.86,4.58-3,.34-3.53-4.15-.86-4.58Z"/>
      <path class="cls-1" d="M61.47,59.9c1.72-.42,2.59,1.95,1.14,2.58-1.95.84-2.81-2.17-1.14-2.58Z"/>
    </g>
  </g>
</svg>