<?xml version="1.0" encoding="UTF-8"?>
<svg id="Layer_2" data-name="Layer 2" xmlns="http://www.w3.org/2000/svg" viewBox="0 0 125.51 108.18">
  <defs>
    <style>
      .cls-1 {
        fill: #fff;
      }

      .cls-2 {
        fill: #42a8e8;
      }

      .cls-3 {
        fill: #11405c;
      }

      .cls-4 {
        fill: #9e9c9d;
      }
    </style>
  </defs>
  <g id="Layer_1-2" data-name="Layer 1">
    <g>
      <path d="M71.74,0c2.29-.06,3.43,1.46,5.15,2.86,8.19,6.7,16.1,19.28,20.49,28.88,5.79,12.65,9.45,26.18,9.34,40.22l.48.29c3.42-.7,11.29-3.83,14.49-3.05,3.34.81,4.17,9.38,3.72,12.1-.81,4.85-4.12,5.68-8.1,7.34-10.74,4.48-22.52,8.16-33.55,12.01-7.48,2.61-19.9,8.38-27.83,7.43-5.49-.66-5.44-4.86-7.72-8.48C33.95,76.96,17.4,55.75.17,35.36c-.62-1.51.6-7.19,2-8.1.88-.57,8.32-2.54,8.48-2.95-.58-1.43-6.4-4.09-6.1-5.34.37-1.53,26.27-9.63,29.64-10.58C43.7,5.7,62.43.26,71.74,0Z"/>
      <path class="cls-4" d="M74.5,96.45c-.06.47.26.69.19,1.14-.65,1.03-1.08,2.26-2.38,2.86-2.41,1.11-13.45,2.56-16.01,2.1-3.86-.7-7.77-7.48-9.63-10.67-2.94-5.06-5.4-10.61-8.39-15.72C28.58,59.53,16.31,45.39,4.36,30.4l9.34-3.34c.44.3,2.97,3.63,2.86,3.91l-7.05.95c9.1,10.28,17.17,21.49,24.4,33.16,3.61,5.84,17.9,33.25,22.59,34.98,4.22,1.55,14.86.16,18.01-3.62Z"/>
      <path class="cls-1" d="M13.7,27.07l-9.34,3.34c11.95,14.99,24.22,29.12,33.93,45.74,2.98,5.11,5.45,10.66,8.39,15.72-13.66-20.14-28.09-39.74-43.46-58.61-1.59-4.44,7.28-5,9.82-6.58.49-.16.54.29.67.38Z"/>
      <path class="cls-2" d="M77.07,16.77c.8,0,3.23,2.65,2.1,3.24-2.06,1.08-10.74,2.59-13.72,3.43-10.2,2.87-20.37,6.42-30.59,8.86l-.95-2.29c8.48-2.73,16.91-5.74,25.45-8.29,3.35-1,15.12-4.95,17.73-4.96Z"/>
      <path class="cls-2" d="M81.65,23.83c.59.06,2.55,2.82,2.29,3.05l-44.7,12.1c-.49-1.6-.21-1.37,1.24-2,6.39-2.78,15.34-5.48,22.11-7.62,6.3-2,12.7-3.73,19.06-5.53Z"/>
      <path class="cls-2" d="M85.27,31.07l2.29,2.29-.19.38-42.5,11.82c-.7-.41-1.13-1.05-.38-1.52,3-1.89,17.64-6.27,21.92-7.62,6.23-1.97,12.56-3.63,18.87-5.34Z"/>
      <path class="cls-2" d="M87.94,38.12c1.41,0,1.48.93,2.29,1.91l-.19.38c-13.18,2.24-26.01,7.46-38.88,10.48-1.85.43-5.82.8-1.52-.95,5.43-2.21,12.26-4.33,17.92-6.1,3.87-1.21,17.25-5.71,20.39-5.72Z"/>
      <path class="cls-2" d="M91.18,44.6c.63-.1,2.07,1.95,1.52,2.29-13.86,2.97-27.5,6.81-41.17,10.48l-1.05-.48c13.31-4.88,26.96-8.76,40.69-12.29Z"/>
      <path class="cls-2" d="M93.46,51.27c.12.03,1.58,1.79.95,2.1l-41.17,9.72-.48-.48,40.69-11.34Z"/>
      <path class="cls-2" d="M94.23,57.94c1.34-.03,1.14.39,1.81,1.43l-40.31,9.43-1.05-.29c-.06-.32,1.5-.76,1.81-.86,4.52-1.47,9.84-2.75,14.49-4,5.11-1.37,18.8-5.61,23.25-5.72Z"/>
      <path class="cls-2" d="M99.75,72.05c1.13-.02,1.1.13,1.05,1.24-13.62,2.82-27.53,4.37-40.98,8.01,3-1.49,6.21-2.67,9.43-3.53,6.61-1.76,24.19-5.62,30.5-5.72Z"/>
      <path class="cls-2" d="M96.13,64.62c.96.93,1.63,1.47,0,1.91-3.64.98-9.31,1.13-13.34,1.91-8.21,1.59-17,4.81-24.97,6.1-.46.08-1.11.36-1.43-.1,13.01-4.11,26.2-7.82,39.74-9.82Z"/>
      <path class="cls-2" d="M58.11,92.63v.38c-5.41-2.07-12.72-21.93-15.44-27.54-4.64-9.58-10.16-18.63-16.39-27.26-4.84-6.7-10.03-13.17-16.01-18.87,9.66-3.46,19.51-6.63,29.45-9.24,10.84-2.85,22.25-5.49,33.36-6.67,16.27,14.84,26.22,35.75,29.45,57.47.55,3.71.92,7.61.86,11.34-2.04-15.94-6.27-31.81-14.2-45.84-2.92-5.17-6.87-9.79-9.63-14.96l-56.13,14.96c2.97,3.52,5.92,7.1,8.58,10.86,2.41,3.4,6.59,9.3,8.2,12.96.08.19.43.86-.19.57l-12.58-16.96c5.04,7.78,9.8,15.79,13.72,24.21,5.97,12.8,8.29,22.95,16.96,34.59Z"/>
      <path class="cls-3" d="M58.11,93.02v-.38c.04.06.49.18.38.48-.05.18-.22-.03-.38-.1Z"/>
      <path class="cls-1" d="M68.5,5.34c.69.05,3.33,3.1,3.43,4-16.64,2.59-33,7.01-48.98,12.2-.79-.18-2.27-1.65-2-2.38l1.24-.86c14.8-6,30.95-8.53,46.32-12.96Z"/>
      <path class="cls-2" d="M74.69,97.59c.07-.45-.25-.68-.19-1.14.17-1.32,2.24-3.86.86-5.91-4.44,4.64-10.21,1.44-14.01-2.19l6.58,2.38,3.34-.1c-1.21-3.36-5.11-4.79-3.91-9.24,18.07-1.47,35.62-5.67,53.18-9.72.73.26,2.06,5.99,1.62,6.96-.28-.7-.96-3.96-1.62-4.1l-28.21,10.1-5.72-.19c-1.73,4.95-2.37,11.9-7.81,14.1l1.81-7.34c-.05-1.46.07-2.93,0-4.38-.04-.83-1-4.53-.95-4.77.13-.7,2.85-1.26,2.67-1.72l-12.67,1.43-.19.38c4.7,5.37,10.34,7.33,5.24,15.44Z"/>
      <path class="cls-1" d="M117.29,72.81c.14-.01.44-.05.48.1-3.68,1.37-7.28,3.1-10.96,4.48-2.2.82-15.37,5.52-16.58,5.34-.27-.04-1.47-.83-1.81-1.05-.06-.55,9.35-2.65,10.39-2.95,4.29-1.24,14.97-5.56,18.49-5.91Z"/>
    </g>
  </g>
</svg>